<svg width="49" height="49" viewBox="0 0 49 49" fill="none" xmlns="http://www.w3.org/2000/svg">
<path d="M15.9666 33.2454C15.334 33.2454 14.7932 33.021 14.3444 32.5722C13.8956 32.1233 13.6711 31.5826 13.6711 30.95V18.0499C13.6711 17.4146 13.8956 16.8715 14.3444 16.4208C14.7932 15.97 15.334 15.7446 15.9666 15.7446H33.0333C33.6687 15.7446 34.2117 15.97 34.6625 16.4208C35.1132 16.8715 35.3386 17.4146 35.3386 18.0499V30.95C35.3386 31.5826 35.1132 32.1233 34.6625 32.5722C34.2117 33.021 33.6687 33.2454 33.0333 33.2454H15.9666ZM33.0333 20.077L25.1229 25.2677C25.0194 25.328 24.918 25.3745 24.8186 25.4071C24.7191 25.4397 24.6129 25.456 24.5 25.456C24.387 25.456 24.2808 25.4397 24.1814 25.4071C24.082 25.3745 23.9805 25.328 23.877 25.2677L15.9666 20.077V30.95H33.0333V20.077ZM24.5 23.5707L32.9639 18.0499H16.0534L24.5 23.5707ZM15.9666 20.3344V18.8863V18.9132V18.0499V18.9085V18.8712V20.3344Z" fill="black"/>
<rect x="0.5" y="0.5" width="48" height="48" rx="24" stroke="black"/>
</svg>
