<svg width="49" height="49" viewBox="0 0 49 49" fill="none" xmlns="http://www.w3.org/2000/svg">
<path d="M21.4362 30.048H22.4362V29.9997L22.4315 29.9516L21.4362 30.048ZM22.1137 27.338L22.9762 27.8441L23.8238 26.3995L22.15 26.3386L22.1137 27.338ZM17.5971 17.5143L18.3319 18.1926L18.7036 17.7899L18.5641 17.2598L17.5971 17.5143ZM17.71 14.0139L17.6333 13.0169L17.0688 13.0603L16.8155 13.5667L17.71 14.0139ZM21.4362 15.256L20.9983 16.1551L21.2911 16.2976L21.6117 16.2405L21.4362 15.256ZM27.7595 15.256L27.6057 16.2441L27.9613 16.2995L28.2707 16.1155L27.7595 15.256ZM31.2598 14.0139L32.1695 13.5986L31.8866 12.979L31.2064 13.0154L31.2598 14.0139ZM31.4857 17.5143L30.535 17.2041L30.3642 17.7276L30.7153 18.1519L31.4857 17.5143ZM26.969 27.338L26.9283 26.3388L25.2821 26.406L26.1015 27.8353L26.969 27.338ZM15.0947 25.7779C14.5449 25.7256 14.0568 26.1289 14.0045 26.6787C13.9522 27.2285 14.3555 27.7166 14.9053 27.7689L15.0947 25.7779ZM22.4362 34V30.048H20.4362V34H22.4362ZM17.5971 17.5143C18.5641 17.2598 18.5642 17.26 18.5642 17.2602C18.5643 17.2603 18.5643 17.2605 18.5643 17.2606C18.5644 17.2608 18.5644 17.261 18.5645 17.2612C18.5646 17.2615 18.5646 17.2617 18.5646 17.2617C18.5647 17.2618 18.5646 17.2615 18.5643 17.2606C18.5639 17.2589 18.563 17.2552 18.5616 17.2497C18.5589 17.2387 18.5544 17.2203 18.5486 17.1951C18.5371 17.1449 18.5203 17.0682 18.5018 16.9708C18.4644 16.7748 18.421 16.5011 18.3963 16.1925C18.3437 15.5349 18.3914 14.8872 18.6044 14.4612L16.8155 13.5667C16.3511 14.4956 16.3423 15.5982 16.4026 16.352C16.4344 16.7492 16.4897 17.0965 16.5371 17.345C16.5609 17.4699 16.583 17.5715 16.5996 17.6438C16.6079 17.68 16.6149 17.709 16.6202 17.7301C16.6228 17.7406 16.6249 17.7492 16.6266 17.7556C16.6274 17.7589 16.6281 17.7616 16.6287 17.7638C16.629 17.7649 16.6292 17.7659 16.6294 17.7667C16.6295 17.7671 16.6296 17.7675 16.6297 17.7679C16.6298 17.768 16.6298 17.7683 16.6299 17.7684C16.6299 17.7686 16.63 17.7688 17.5971 17.5143ZM17.7867 15.011C18.9032 14.9251 19.2328 15.2952 20.9983 16.1551L21.874 14.357C20.487 13.6814 19.4525 12.8769 17.6333 13.0169L17.7867 15.011ZM21.6117 16.2405C23.9493 15.8237 25.2198 15.8728 27.6057 16.2441L27.9132 14.2679C25.3604 13.8706 23.8618 13.8078 21.2607 14.2715L21.6117 16.2405ZM28.2707 16.1155C29.5938 15.3285 30.1983 15.0722 31.3133 15.0125L31.2064 13.0154C29.6205 13.1002 28.686 13.5413 27.2482 14.3966L28.2707 16.1155ZM30.3502 14.4293C30.6228 15.0265 30.7381 15.4465 30.7627 15.8259C30.787 16.2021 30.7273 16.6148 30.535 17.2041L32.4363 17.8245C32.6765 17.0884 32.8047 16.4098 32.7585 15.6966C32.7124 14.9866 32.4985 14.3191 32.1695 13.5986L30.3502 14.4293ZM26.1015 27.8353C26.6957 28.8718 26.8107 29.6766 26.8055 30.5644C26.8027 31.0506 26.7658 31.5106 26.7389 32.1155C26.7131 32.6966 26.7015 33.3459 26.7629 34.083L28.756 33.917C28.7045 33.2991 28.713 32.744 28.7369 32.2042C28.7599 31.6882 28.8024 31.1107 28.8055 30.576C28.8122 29.4219 28.6449 28.2506 27.8366 26.8406L26.1015 27.8353ZM16.8623 16.836C15.2275 18.6071 14.7703 21.401 15.5622 23.7606C16.3827 26.2052 18.5448 28.2089 22.0773 28.3373L22.15 26.3386C19.4722 26.2413 18.021 24.801 17.4583 23.1242C16.867 21.3623 17.2567 19.3574 18.3319 18.1926L16.8623 16.836ZM30.7153 18.1519C31.8072 19.4713 32.0512 21.4785 31.3851 23.2104C30.7375 24.894 29.2574 26.2437 26.9283 26.3388L27.0098 28.3371C30.2136 28.2064 32.3467 26.2815 33.2518 23.9284C34.1382 21.6236 33.8741 18.8319 32.2561 16.8768L30.7153 18.1519ZM21.1391 29.0931C19.9434 29.4651 19.3934 29.4054 19.1457 29.3139C18.9426 29.2389 18.7878 29.0886 18.561 28.6631C18.3756 28.3153 18.0601 27.5631 17.5918 27.0084C17.0421 26.3573 16.2597 25.8887 15.0947 25.7779L14.9053 27.7689C15.5615 27.8313 15.859 28.0563 16.0636 28.2986C16.3497 28.6374 16.4628 28.9786 16.7961 29.6038C17.0878 30.1512 17.5416 30.8534 18.4525 31.19C19.3189 31.5101 20.3884 31.4212 21.7333 31.0028L21.1391 29.0931ZM21.2512 26.8319C20.86 27.4985 20.6136 28.0567 20.4932 28.6117C20.3709 29.1753 20.3945 29.6656 20.4408 30.1443L22.4315 29.9516C22.3919 29.5419 22.3912 29.2959 22.4477 29.0359C22.506 28.7673 22.6413 28.4147 22.9762 27.8441L21.2512 26.8319Z" fill="black"/>
<rect x="0.5" y="0.5" width="48" height="48" rx="24" stroke="black"/>
</svg>
