<svg width="49" height="49" viewBox="0 0 49 49" fill="none" xmlns="http://www.w3.org/2000/svg">
<g clip-path="url(#clip0_33_5)">
<path d="M24.5 12C21.1041 12 20.6802 12.0156 19.3469 12.075C18.0156 12.1375 17.1094 12.3469 16.3125 12.6562C15.4906 12.975 14.7927 13.4031 14.0979 14.0979C13.4031 14.7927 12.974 15.4896 12.6562 16.3125C12.3469 17.1094 12.1365 18.0156 12.075 19.3469C12.0125 20.6802 12 21.1041 12 24.5C12 27.8959 12.0156 28.3198 12.075 29.6531C12.1375 30.9834 12.3469 31.8906 12.6562 32.6875C12.975 33.5084 13.4031 34.2073 14.0979 34.9021C14.7927 35.5959 15.4896 36.026 16.3125 36.3437C17.1104 36.6521 18.0167 36.8635 19.3469 36.925C20.6802 36.9875 21.1041 37 24.5 37C27.8959 37 28.3198 36.9844 29.6531 36.925C30.9834 36.8625 31.8906 36.6521 32.6875 36.3437C33.5084 36.025 34.2073 35.5959 34.9021 34.9021C35.5959 34.2073 36.026 33.5115 36.3437 32.6875C36.6521 31.8906 36.8635 30.9834 36.925 29.6531C36.9875 28.3198 37 27.8959 37 24.5C37 21.1041 36.9844 20.6802 36.925 19.3469C36.8625 18.0167 36.6521 17.1083 36.3437 16.3125C36.025 15.4906 35.5959 14.7927 34.9021 14.0979C34.2073 13.4031 33.5115 12.974 32.6875 12.6562C31.8906 12.3469 30.9834 12.1365 29.6531 12.075C28.3198 12.0125 27.8959 12 24.5 12ZM24.5 14.25C27.8365 14.25 28.2344 14.2667 29.5521 14.324C30.7709 14.3812 31.4323 14.5833 31.8719 14.7563C32.4573 14.9823 32.8719 15.2531 33.3115 15.6896C33.7479 16.1271 34.0188 16.5427 34.2448 17.1281C34.4156 17.5677 34.6198 18.2292 34.675 19.4479C34.7344 20.7666 34.7479 21.1625 34.7479 24.5C34.7479 27.8375 34.7323 28.2344 34.6709 29.5521C34.6073 30.7709 34.4041 31.4323 34.2323 31.8719C33.999 32.4573 33.7334 32.8719 33.2959 33.3115C32.8594 33.7479 32.4375 34.0188 31.8584 34.2448C31.4209 34.4156 30.749 34.6198 29.5302 34.675C28.2031 34.7344 27.8125 34.7479 24.4688 34.7479C21.124 34.7479 20.7334 34.7323 19.4073 34.6709C18.1875 34.6073 17.5156 34.4041 17.0781 34.2323C16.4854 33.999 16.0781 33.7334 15.6417 33.2959C15.2031 32.8594 14.9229 32.4375 14.7042 31.8584C14.5323 31.4209 14.3302 30.749 14.2667 29.5302C14.2198 28.2177 14.2031 27.8125 14.2031 24.4844C14.2031 21.1552 14.2198 20.749 14.2667 19.4208C14.3302 18.2021 14.5323 17.5312 14.7042 17.0937C14.9229 16.5 15.2031 16.0937 15.6417 15.6552C16.0781 15.2187 16.4854 14.9375 17.0781 14.7198C17.5156 14.5469 18.1729 14.3438 19.3917 14.2813C20.7198 14.2344 21.1104 14.2187 24.4531 14.2187L24.5 14.25ZM24.5 18.0812C20.9531 18.0812 18.0812 20.9563 18.0812 24.5C18.0812 28.0469 20.9563 30.9187 24.5 30.9187C28.0469 30.9187 30.9187 28.0437 30.9187 24.5C30.9187 20.9531 28.0437 18.0812 24.5 18.0812ZM24.5 28.6666C22.1979 28.6666 20.3334 26.8021 20.3334 24.5C20.3334 22.1979 22.1979 20.3334 24.5 20.3334C26.8021 20.3334 28.6666 22.1979 28.6666 24.5C28.6666 26.8021 26.8021 28.6666 24.5 28.6666ZM32.6729 17.8281C32.6729 18.6562 32 19.3281 31.1729 19.3281C30.3448 19.3281 29.6729 18.6552 29.6729 17.8281C29.6729 17.001 30.3459 16.3292 31.1729 16.3292C31.999 16.3281 32.6729 17.001 32.6729 17.8281Z" fill="black"/>
</g>
<rect x="0.5" y="0.5" width="48" height="48" rx="24" stroke="black"/>
<defs>
<clipPath id="clip0_33_5">
<rect width="25" height="25" fill="white" transform="translate(12 12)"/>
</clipPath>
</defs>
</svg>
