<svg width="49" height="49" viewBox="0 0 49 49" fill="none" xmlns="http://www.w3.org/2000/svg">
<path d="M32.7439 34.2528C30.5297 34.2528 28.3476 33.7276 26.1974 32.6771C24.0472 31.6267 22.1214 30.253 20.4201 28.5561C18.7187 26.8592 17.343 24.9337 16.2929 22.7794C15.2428 20.6251 14.7178 18.4441 14.7178 16.2365C14.7178 15.8007 14.8652 15.4353 15.1601 15.1405C15.455 14.8456 15.8203 14.6981 16.2561 14.6981H20.088C20.513 14.6981 20.8683 14.8151 21.1539 15.0491C21.4394 15.2831 21.6283 15.615 21.7204 16.0448L22.4099 19.1875C22.4773 19.5679 22.4721 19.9025 22.3941 20.1913C22.3161 20.4801 22.1592 20.7287 21.9234 20.9372L19.2766 23.4433C20.1024 24.7858 21.0385 25.9759 22.0848 27.0133C23.1312 28.0508 24.2964 28.936 25.5805 29.6691L28.1292 27.1027C28.3854 26.8447 28.6715 26.6661 28.9877 26.5667C29.3038 26.4673 29.6414 26.4588 30.0005 26.541L32.9258 27.2011C33.3574 27.3099 33.6914 27.5064 33.9277 27.7905C34.1641 28.0747 34.2823 28.4333 34.2823 28.8663V32.6997C34.2823 33.1435 34.1348 33.5132 33.8399 33.8091C33.545 34.1049 33.1797 34.2528 32.7439 34.2528ZM18.1462 21.3723L20.1107 19.4887L19.5834 16.9936H17.0464C17.0558 17.6268 17.1483 18.3002 17.3242 19.0135C17.5 19.7269 17.774 20.5132 18.1462 21.3723ZM31.977 31.9105V29.3528L29.6182 28.8429L27.6945 30.8164C28.3424 31.1184 29.0376 31.3628 29.7801 31.5497C30.5226 31.7367 31.2549 31.8569 31.977 31.9105Z" fill="black"/>
<rect x="0.5" y="0.5" width="48" height="48" rx="24" stroke="black"/>
</svg>
