<svg width="25" height="25" viewBox="0 0 25 25" fill="none" xmlns="http://www.w3.org/2000/svg">
<path d="M8.12915 5.71595V3.6379C8.12915 3.01415 8.35356 2.474 8.8024 2.01746C9.25124 1.56091 9.79197 1.33264 10.4246 1.33264H14.5754C15.1965 1.33264 15.7343 1.56091 16.1889 2.01746C16.6436 2.474 16.8709 3.01415 16.8709 3.6379V5.71595H21.0334C21.6687 5.71595 22.2117 5.94326 22.6625 6.39788C23.1133 6.85251 23.3386 7.39035 23.3386 8.01139V20.0261C23.3386 20.6498 23.1133 21.19 22.6625 21.6465C22.2117 22.1031 21.6687 22.3313 21.0334 22.3313H3.96665C3.34559 22.3313 2.80774 22.1031 2.3531 21.6465C1.8985 21.19 1.6712 20.6498 1.6712 20.0261V8.01139C1.6712 7.39035 1.89852 6.85251 2.35316 6.39788C2.80777 5.94326 3.34561 5.71595 3.96667 5.71595H8.12917H8.12915ZM10.4246 5.71595H14.5754V3.6379H10.4246V5.71595ZM21.0334 15.4684H15.1215V16.0598C15.1215 16.3819 15.0104 16.6531 14.7883 16.8737C14.5662 17.0942 14.2944 17.2045 13.973 17.2045H11.0569C10.7355 17.2045 10.4646 17.0935 10.244 16.8715C10.0235 16.6495 9.91321 16.3779 9.91321 16.0568V15.4684H3.96665V20.1733H21.0334V15.4684ZM11.6493 15.4684H13.3854V13.7323H11.6493V15.4684ZM3.96665 13.7323H9.91321V13.1409C9.91321 12.8188 10.0243 12.5475 10.2464 12.327C10.4686 12.1065 10.7403 11.9962 11.0617 11.9962H13.9778C14.2992 11.9962 14.5702 12.1072 14.7907 12.3292C15.0112 12.5511 15.1215 12.8227 15.1215 13.1439V13.7323H21.0334V8.01139H3.96665V13.7323Z" fill="#FFBB00"/>
</svg>
