<svg width="25" height="25" viewBox="0 0 25 25" fill="none" xmlns="http://www.w3.org/2000/svg">
<path d="M6.04997 19.9916H9.26893V13.4355H15.7311V19.9916H18.95V10.3117L12.5 5.4766L6.04997 10.315V19.9916ZM6.04997 22.2871C5.41872 22.2871 4.87833 22.0623 4.4288 21.6128C3.97927 21.1633 3.7545 20.6229 3.7545 19.9916V10.3117C3.7545 9.94884 3.83644 9.60511 4.00031 9.28047C4.16416 8.95582 4.39058 8.68776 4.67955 8.47628L11.1149 3.64613C11.3269 3.49441 11.5505 3.37898 11.7857 3.29985C12.0209 3.22072 12.2604 3.18115 12.5042 3.18115C12.748 3.18115 12.9864 3.22072 13.2196 3.29985C13.4527 3.37898 13.6746 3.49441 13.8851 3.64613L20.3204 8.47628C20.6118 8.6913 20.8404 8.96056 21.0063 9.28407C21.1723 9.60758 21.2553 9.95011 21.2553 10.3117V19.9916C21.2553 20.6229 21.0296 21.1633 20.5781 21.6128C20.1267 22.0623 19.584 22.2871 18.95 22.2871H13.6172V15.5494H11.3828V22.2871H6.04997Z" fill="url(#paint0_linear_14_1511)"/>
<defs>
<linearGradient id="paint0_linear_14_1511" x1="12.5049" y1="3.18115" x2="12.5049" y2="22.2871" gradientUnits="userSpaceOnUse">
<stop stop-color="#FFBF00"/>
<stop offset="1" stop-color="#F2A50C"/>
</linearGradient>
</defs>
</svg>
