<svg width="18" height="18" viewBox="0 0 10 10" fill="none" xmlns="http://www.w3.org/2000/svg">
<path d="M1.92821 8.8972C1.70247 8.8972 1.50851 8.81611 1.34632 8.65391C1.18412 8.49172 1.10303 8.29776 1.10303 8.07202V1.928C1.10303 1.70064 1.18412 1.50528 1.34632 1.34193C1.50851 1.17859 1.70247 1.09692 1.92821 1.09692H4.36888C4.4849 1.09692 4.58267 1.13801 4.66219 1.22018C4.74171 1.30236 4.78147 1.40155 4.78147 1.51775C4.78147 1.63394 4.74171 1.73136 4.66219 1.81002C4.58267 1.88867 4.4849 1.928 4.36888 1.928H1.92821V8.07202H8.07224V5.63135C8.07224 5.51533 8.11217 5.41756 8.19204 5.33804C8.27191 5.25852 8.36995 5.21876 8.48614 5.21876C8.60234 5.21876 8.70091 5.25852 8.78187 5.33804C8.86283 5.41756 8.90331 5.51533 8.90331 5.63135V8.07202C8.90331 8.29776 8.82164 8.49172 8.6583 8.65391C8.49495 8.81611 8.2996 8.8972 8.07224 8.8972H1.92821ZM3.82677 6.17075C3.75068 6.09134 3.7109 5.99699 3.70742 5.8877C3.70395 5.77842 3.74328 5.68119 3.82541 5.59601L7.49931 1.928H5.81907C5.70305 1.928 5.60528 1.88806 5.52576 1.80819C5.44624 1.72832 5.40647 1.63028 5.40647 1.51409C5.40647 1.3979 5.44624 1.29932 5.52576 1.21836C5.60528 1.1374 5.70305 1.09692 5.81907 1.09692H8.48483C8.60036 1.09692 8.69899 1.13779 8.78071 1.21952C8.86244 1.30125 8.90331 1.39988 8.90331 1.5154V4.18116C8.90331 4.29718 8.86222 4.39495 8.78005 4.47448C8.69787 4.554 8.59868 4.59376 8.48249 4.59376C8.36629 4.59376 8.26887 4.554 8.19021 4.47448C8.11156 4.39495 8.07224 4.29718 8.07224 4.18116V2.51134L4.40422 6.18524C4.32597 6.26042 4.23048 6.29703 4.11773 6.29507C4.00498 6.2931 3.90799 6.25166 3.82677 6.17075Z" fill="#FFBB00"/>
</svg>
