<svg width="25" height="25" viewBox="0 0 25 25" fill="none" xmlns="http://www.w3.org/2000/svg">
<path d="M19.2011 22.0211C18.8642 22.0211 18.539 21.9548 18.2256 21.8224C17.9122 21.6899 17.6333 21.4961 17.389 21.241L11.3904 15.2049C11.0107 15.334 10.6368 15.4346 10.2687 15.5067C9.90062 15.5788 9.49665 15.6148 9.05682 15.6148C7.27321 15.6148 5.7596 14.9923 4.51599 13.7472C3.27238 12.5021 2.65057 10.9979 2.65057 9.23461C2.65057 8.67678 2.73366 8.11086 2.89982 7.53687C3.06598 6.96286 3.28143 6.44332 3.54617 5.97825L7.40068 9.82789L9.79164 7.5883L5.83784 3.6345C6.27794 3.37134 6.78935 3.14948 7.37206 2.96893C7.95478 2.78839 8.51637 2.69812 9.05682 2.69812C10.8684 2.69812 12.4083 3.33361 13.6764 4.60458C14.9445 5.87557 15.5786 7.41891 15.5786 9.23461C15.5786 9.63363 15.5426 10.0249 15.4705 10.4085C15.3984 10.7921 15.2978 11.1836 15.1687 11.5829L21.1006 17.5147C21.3557 17.77 21.5495 18.0603 21.682 18.3859C21.8144 18.7114 21.8807 19.055 21.8807 19.4167C21.8807 19.7784 21.8126 20.1221 21.6763 20.4478C21.5401 20.7735 21.3357 21.0553 21.0632 21.293C20.7907 21.5308 20.4973 21.7116 20.1831 21.8354C19.8689 21.9592 19.5415 22.0211 19.2011 22.0211ZM18.7444 19.9117C18.8832 20.0604 19.0569 20.1347 19.2652 20.1347C19.4735 20.1347 19.6471 20.0628 19.786 19.9191C19.9249 19.7753 19.9944 19.6016 19.9944 19.3982C19.9944 19.1948 19.9249 19.0187 19.786 18.87L12.8589 11.9429C13.1367 11.5784 13.345 11.1487 13.4839 10.6539C13.6228 10.1591 13.6922 9.68599 13.6922 9.23461C13.6922 7.93252 13.2105 6.83009 12.2469 5.92731C11.2834 5.02454 10.1853 4.56447 8.95266 4.54711L11.5829 7.2294C11.7391 7.38565 11.8172 7.57662 11.8172 7.80231C11.8172 8.02801 11.7391 8.21898 11.5829 8.37523L8.14537 11.6044C7.98912 11.7606 7.79814 11.8388 7.57245 11.8388C7.34676 11.8388 7.15578 11.7606 6.99953 11.6044L4.47349 9.1044C4.52557 10.4412 5.00012 11.5436 5.89714 12.4117C6.79415 13.2797 7.84738 13.7138 9.05682 13.7138C9.49085 13.7138 9.95092 13.6443 10.437 13.5054C10.9231 13.3666 11.3485 13.1582 11.7131 12.8804L18.7444 19.9117Z" fill="#FFBB00"/>
</svg>
