<svg width="25" height="25" viewBox="0 0 25 25" fill="none" xmlns="http://www.w3.org/2000/svg">
<path d="M12.474 21.7142C12.3077 21.7142 12.1413 21.6963 11.9745 21.6604C11.8078 21.6246 11.644 21.5621 11.4832 21.473L5.84692 18.4126C5.51555 18.2345 5.254 17.9806 5.06226 17.6511C4.87054 17.3216 4.77469 16.9632 4.77469 16.5761V11.5727L2.37997 10.2876C2.20011 10.1892 2.06797 10.0588 1.98354 9.89648C1.89909 9.73416 1.85687 9.55926 1.85687 9.3718C1.85687 9.18435 1.89839 9.01393 1.98143 8.86055C2.06447 8.70718 2.19732 8.57936 2.37997 8.47711L11.4832 3.4975C11.6319 3.41825 11.7918 3.3539 11.9628 3.30445C12.1338 3.25501 12.3047 3.23029 12.4755 3.23029C12.6462 3.23029 12.8166 3.25501 12.9866 3.30445C13.1566 3.3539 13.3209 3.41825 13.4794 3.4975L23.733 9.06703C23.9084 9.17469 24.0437 9.31035 24.1391 9.47403C24.2345 9.63771 24.2822 9.81002 24.2822 9.99094V16.849C24.2822 17.1162 24.1906 17.3402 24.0076 17.521C23.8246 17.7017 23.5978 17.7921 23.3272 17.7921C23.0603 17.7921 22.8359 17.7017 22.654 17.521C22.4721 17.3402 22.3811 17.1162 22.3811 16.849V10.4778L20.188 11.5679V16.5761C20.188 16.9632 20.0896 17.3216 19.893 17.6511C19.6964 17.9806 19.4324 18.2345 19.101 18.4126L13.4647 21.473C13.3039 21.5621 13.1401 21.6246 12.9734 21.6604C12.8067 21.6963 12.6402 21.7142 12.474 21.7142ZM12.474 13.6334L20.2649 9.375L12.474 5.19476L4.73508 9.375L12.474 13.6334ZM12.474 19.8686L18.2722 16.6644V12.7016L13.4647 15.2785C13.3137 15.3578 13.1554 15.4178 12.9897 15.4586C12.824 15.4993 12.6521 15.5197 12.474 15.5197C12.2958 15.5197 12.1282 15.4993 11.9712 15.4586C11.8142 15.4178 11.6602 15.3578 11.5093 15.2785L6.67573 12.6495V16.6644L12.474 19.8686Z" fill="#FFBB00"/>
</svg>
