<svg width="25" height="25" viewBox="0 0 25 25" fill="none" xmlns="http://www.w3.org/2000/svg">
<path d="M3.7783 21.2013C3.21394 21.2013 2.72903 20.9986 2.32356 20.5931C1.91807 20.1876 1.71533 19.7027 1.71533 19.1383V5.86162C1.71533 5.29321 1.91807 4.80483 2.32356 4.39646C2.72903 3.98811 3.21394 3.78394 3.7783 3.78394H21.2217C21.7901 3.78394 22.2785 3.98811 22.6868 4.39646C23.0952 4.80483 23.2994 5.29321 23.2994 5.86162V19.1383C23.2994 19.7027 23.0952 20.1876 22.6868 20.5931C22.2785 20.9986 21.7901 21.2013 21.2217 21.2013H3.7783ZM3.7783 19.1383H21.2217V8.04912H3.7783V19.1383ZM9.40103 13.5937L7.23958 11.4323C7.08333 11.276 7.00954 11.0937 7.01822 10.8854C7.0269 10.6771 7.10937 10.4948 7.26562 10.3385C7.42187 10.1823 7.60416 10.1041 7.81249 10.1041C8.02083 10.1041 8.20312 10.1823 8.35937 10.3385L10.8763 12.8555C11.0817 13.0644 11.1843 13.3114 11.1843 13.5964C11.1843 13.8815 11.0817 14.1266 10.8763 14.332L8.35937 16.8489C8.20312 17.0052 8.02083 17.0833 7.81249 17.0833C7.60416 17.0833 7.42187 17.0052 7.26562 16.8489C7.10937 16.6927 7.03124 16.5104 7.03124 16.3021C7.03124 16.0937 7.10937 15.9114 7.26562 15.7552L9.40103 13.5937ZM13.5417 17.5C13.316 17.5 13.1293 17.4262 12.9818 17.2786C12.8342 17.1311 12.7604 16.9444 12.7604 16.7187C12.7604 16.493 12.8342 16.3064 12.9818 16.1588C13.1293 16.0113 13.316 15.9375 13.5417 15.9375H17.7083C17.934 15.9375 18.1207 16.0113 18.2682 16.1588C18.4158 16.3064 18.4896 16.493 18.4896 16.7187C18.4896 16.9444 18.4158 17.1311 18.2682 17.2786C18.1207 17.4262 17.934 17.5 17.7083 17.5H13.5417Z" fill="#FFBB00"/>
</svg>
