<svg width="25" height="25" viewBox="0 0 25 25" fill="none" xmlns="http://www.w3.org/2000/svg">
<path d="M13.8511 23.2552C13.4463 23.2552 13.1478 23.1216 12.9557 22.8545C12.7636 22.5874 12.7419 22.2652 12.8906 21.8878L16.8659 11.3768C16.9701 11.0892 17.1635 10.845 17.4462 10.6442C17.7289 10.4435 18.0276 10.3431 18.3424 10.3431C18.6375 10.3431 18.9329 10.4435 19.2284 10.6442C19.524 10.845 19.7294 11.0892 19.8449 11.3768L23.8983 21.7674C24.0546 22.1864 24.0348 22.5391 23.8389 22.8255C23.643 23.112 23.3145 23.2552 22.8533 23.2552C22.6525 23.2552 22.4579 23.1871 22.2696 23.0509C22.0813 22.9146 21.9524 22.7461 21.8829 22.5453L21.0154 19.8562H15.8469L14.8279 22.5861C14.7584 22.7695 14.6305 22.9269 14.4439 23.0582C14.2574 23.1896 14.0598 23.2552 13.8511 23.2552ZM16.4346 17.9744H20.2502L18.3669 12.7604H18.3164L16.4346 17.9744ZM7.36412 8.77378C7.63436 9.24478 7.93014 9.70042 8.25146 10.1407C8.5728 10.581 8.92165 11.0364 9.298 11.507C10.1114 10.6587 10.7885 9.78254 11.3292 8.87867C11.8699 7.9748 12.3307 7.02989 12.7117 6.04393H1.74003C1.43824 6.04393 1.18507 5.94117 0.980525 5.73565C0.775959 5.53015 0.673676 5.27785 0.673676 4.97875C0.673676 4.67965 0.777 4.42292 0.983649 4.20854C1.19028 3.99417 1.44399 3.88698 1.74477 3.88698H8.20308V2.81589C8.20308 2.5151 8.30667 2.26139 8.51386 2.05474C8.72105 1.84809 8.97543 1.74477 9.27701 1.74477C9.57861 1.74477 9.83414 1.84809 10.0436 2.05474C10.2531 2.26139 10.3578 2.5151 10.3578 2.81589V3.88698H16.804C17.1057 3.88698 17.3588 3.99318 17.5634 4.20557C17.768 4.41797 17.8703 4.67518 17.8703 4.97721C17.8703 5.27923 17.7669 5.53252 17.5603 5.73708C17.3536 5.94165 17.0999 6.04393 16.7991 6.04393H14.8508C14.4513 7.2811 13.9225 8.49657 13.2643 9.69034C12.6061 10.8841 11.8022 12.0165 10.8526 13.0876L13.493 15.7541L12.7065 17.9239L9.27649 14.6422L4.63427 19.2946C4.39162 19.5347 4.12224 19.6498 3.82615 19.6399C3.53006 19.6301 3.31596 19.5014 3.18386 19.2539C2.96572 19.0531 2.85664 18.8138 2.85664 18.536C2.85664 18.2582 2.96572 18.0103 3.18386 17.7921L7.91441 13.0674C7.44338 12.5155 7.00331 11.9563 6.5942 11.3898C6.18508 10.8233 5.81069 10.2438 5.47102 9.65128C5.25286 9.25951 5.23304 8.91983 5.41157 8.63224C5.59009 8.34465 5.9127 8.20086 6.3794 8.20086C6.57847 8.20086 6.7682 8.25483 6.9486 8.36276C7.129 8.47071 7.2675 8.60772 7.36412 8.77378Z" fill="#FFBB00"/>
</svg>
