<svg width="50" height="49" viewBox="0 0 50 49" fill="none" xmlns="http://www.w3.org/2000/svg">
<path d="M16.4666 33.2454C15.834 33.2454 15.2933 33.021 14.8444 32.5722C14.3956 32.1233 14.1712 31.5826 14.1712 30.95V18.0499C14.1712 17.4146 14.3956 16.8715 14.8444 16.4208C15.2933 15.97 15.834 15.7446 16.4666 15.7446H33.5334C34.1687 15.7446 34.7117 15.97 35.1625 16.4208C35.6133 16.8715 35.8386 17.4146 35.8386 18.0499V30.95C35.8386 31.5826 35.6133 32.1233 35.1625 32.5722C34.7117 33.021 34.1687 33.2454 33.5334 33.2454H16.4666ZM33.5334 20.077L25.6229 25.2677C25.5195 25.328 25.418 25.3745 25.3186 25.4071C25.2192 25.4397 25.113 25.456 25 25.456C24.887 25.456 24.7808 25.4397 24.6814 25.4071C24.582 25.3745 24.4805 25.328 24.3771 25.2677L16.4666 20.077V30.95H33.5334V20.077ZM25 23.5707L33.4639 18.0499H16.5534L25 23.5707ZM16.4666 20.3344V18.8863V18.9132V18.0499V18.9085V18.8712V20.3344Z" fill="url(#paint0_linear_14_1475)"/>
<rect x="1" y="0.5" width="48" height="48" rx="24" stroke="url(#paint1_linear_14_1475)"/>
<defs>
<linearGradient id="paint0_linear_14_1475" x1="25.0049" y1="15.7446" x2="25.0049" y2="33.2454" gradientUnits="userSpaceOnUse">
<stop stop-color="#FFBF00"/>
<stop offset="1" stop-color="#F2A50C"/>
</linearGradient>
<linearGradient id="paint1_linear_14_1475" x1="25" y1="0" x2="25" y2="49" gradientUnits="userSpaceOnUse">
<stop stop-color="#FFBF00"/>
<stop offset="1" stop-color="#F2A50C"/>
</linearGradient>
</defs>
</svg>
