<svg width="50" height="49" viewBox="0 0 50 49" fill="none" xmlns="http://www.w3.org/2000/svg">
<path d="M33.2439 34.2529C31.0297 34.2529 28.8476 33.7277 26.6974 32.6773C24.5472 31.6268 22.6214 30.2531 20.9201 28.5562C19.2187 26.8594 17.843 24.9338 16.7929 22.7795C15.7428 20.6252 15.2178 18.4442 15.2178 16.2366C15.2178 15.8008 15.3652 15.4355 15.6601 15.1406C15.955 14.8457 16.3203 14.6982 16.7561 14.6982H20.588C21.013 14.6982 21.3683 14.8152 21.6539 15.0492C21.9394 15.2832 22.1283 15.6151 22.2204 16.0449L22.9099 19.1876C22.9773 19.568 22.9721 19.9027 22.8941 20.1914C22.8161 20.4802 22.6592 20.7289 22.4234 20.9373L19.7766 23.4434C20.6024 24.786 21.5385 25.976 22.5848 27.0134C23.6312 28.0509 24.7964 28.9361 26.0805 29.6692L28.6292 27.1028C28.8854 26.8449 29.1715 26.6662 29.4877 26.5668C29.8038 26.4674 30.1414 26.4589 30.5005 26.5412L33.4258 27.2013C33.8574 27.31 34.1914 27.5065 34.4277 27.7906C34.6641 28.0748 34.7823 28.4334 34.7823 28.8664V32.6998C34.7823 33.1436 34.6348 33.5134 34.3399 33.8092C34.045 34.105 33.6797 34.2529 33.2439 34.2529ZM18.6462 21.3725L20.6107 19.4888L20.0834 16.9937H17.5464C17.5558 17.6269 17.6483 18.3003 17.8242 19.0137C18 19.727 18.274 20.5133 18.6462 21.3725ZM32.477 31.9107V29.3529L30.1182 28.843L28.1945 30.8165C28.8424 31.1185 29.5376 31.3629 30.2801 31.5499C31.0226 31.7368 31.7549 31.8571 32.477 31.9107Z" fill="url(#paint0_linear_14_1469)"/>
<rect x="1" y="0.5" width="48" height="48" rx="24" stroke="url(#paint1_linear_14_1469)"/>
<defs>
<linearGradient id="paint0_linear_14_1469" x1="25" y1="14.6982" x2="25" y2="34.2529" gradientUnits="userSpaceOnUse">
<stop stop-color="#FFBF00"/>
<stop offset="1" stop-color="#F2A50C"/>
</linearGradient>
<linearGradient id="paint1_linear_14_1469" x1="25" y1="0" x2="25" y2="49" gradientUnits="userSpaceOnUse">
<stop stop-color="#FFBF00"/>
<stop offset="1" stop-color="#F2A50C"/>
</linearGradient>
</defs>
</svg>
